<svg width="1024" height="1024" viewBox="0 0 1024 1024" fill="none" xmlns="http://www.w3.org/2000/svg">
<path d="M237.399 663.23C212.738 663.23 192 643.029 192 618.899C192 594.209 212.738 574.007 237.399 574.007C262.06 574.007 282.797 594.209 282.797 618.899C282.797 643.029 262.06 663.23 237.399 663.23ZM321.326 514.525C321.326 427.547 372.89 370.871 450.796 370.871C492.832 370.871 529.263 389.389 546.077 421.374L550.561 379.288H613.335V785H545.517V619.46C528.142 647.518 491.711 663.791 450.796 663.791C368.406 663.791 321.326 600.942 321.326 514.525ZM389.704 517.892C389.704 567.273 418.849 602.065 466.49 602.065C514.13 602.065 544.957 567.834 544.957 517.892C544.957 467.95 514.13 433.158 466.49 433.158C418.849 433.158 389.704 468.511 389.704 517.892ZM657.131 379.288H696.925V345.619C696.925 270.425 736.719 239 796.69 239C807.339 239 820.23 239.561 832 241.806V300.166H807.899C773.15 300.166 764.743 318.122 764.743 345.619V379.288H830.879V436.525H764.743V656.496H696.925V436.525H657.131V379.288Z" fill="#00D179"/>
</svg>
